<mxfile host="app.diagrams.net" modified="2022-01-06T09:47:26.709Z" agent="5.0 (Windows NT 10.0; Win64; x64) AppleWebKit/537.36 (KHTML, like Gecko) Chrome/96.0.4664.110 Safari/537.36 Edg/96.0.1054.62" etag="QqrOh29uml2WLyrdWHf-" version="16.1.4" type="github">
  <diagram id="C5RBs43oDa-KdzZeNtuy" name="Page-1">
    <mxGraphModel dx="1422" dy="754" grid="1" gridSize="10" guides="1" tooltips="1" connect="1" arrows="1" fold="1" page="1" pageScale="1" pageWidth="2336" pageHeight="1654" math="0" shadow="0">
      <root>
        <mxCell id="WIyWlLk6GJQsqaUBKTNV-0" />
        <mxCell id="WIyWlLk6GJQsqaUBKTNV-1" parent="WIyWlLk6GJQsqaUBKTNV-0" />
        <mxCell id="3BHlE7sxE0ALU3HnH_fy-0" value="utilities" style="shape=folder;fontStyle=1;spacingTop=10;tabWidth=40;tabHeight=14;tabPosition=left;html=1;align=center;verticalAlign=top;" parent="WIyWlLk6GJQsqaUBKTNV-1" vertex="1">
          <mxGeometry x="40" y="10" width="910" height="190" as="geometry" />
        </mxCell>
        <mxCell id="3BHlE7sxE0ALU3HnH_fy-2" value="MqttStringOperator" style="swimlane;fontStyle=1;align=center;verticalAlign=top;childLayout=stackLayout;horizontal=1;startSize=26;horizontalStack=0;resizeParent=1;resizeParentMax=0;resizeLast=0;collapsible=1;marginBottom=0;" parent="WIyWlLk6GJQsqaUBKTNV-1" vertex="1">
          <mxGeometry x="320" y="40" width="160" height="52" as="geometry">
            <mxRectangle x="130" y="62" width="140" height="26" as="alternateBounds" />
          </mxGeometry>
        </mxCell>
        <mxCell id="3BHlE7sxE0ALU3HnH_fy-5" value="+ split(String): String [ ]" style="text;strokeColor=none;fillColor=none;align=left;verticalAlign=top;spacingLeft=4;spacingRight=4;overflow=hidden;rotatable=0;points=[[0,0.5],[1,0.5]];portConstraint=eastwest;" parent="3BHlE7sxE0ALU3HnH_fy-2" vertex="1">
          <mxGeometry y="26" width="160" height="26" as="geometry" />
        </mxCell>
        <mxCell id="3BHlE7sxE0ALU3HnH_fy-8" value="dataReceived" style="shape=folder;fontStyle=1;spacingTop=10;tabWidth=40;tabHeight=14;tabPosition=left;html=1;align=center;verticalAlign=top;" parent="WIyWlLk6GJQsqaUBKTNV-1" vertex="1">
          <mxGeometry x="40" y="250" width="760" height="900" as="geometry" />
        </mxCell>
        <mxCell id="3BHlE7sxE0ALU3HnH_fy-9" value="ANcybFishData_VerG(GPS)" style="swimlane;fontStyle=1;align=center;verticalAlign=top;childLayout=stackLayout;horizontal=1;startSize=26;horizontalStack=0;resizeParent=1;resizeParentMax=0;resizeLast=0;collapsible=1;marginBottom=0;" parent="WIyWlLk6GJQsqaUBKTNV-1" vertex="1">
          <mxGeometry x="150" y="550" width="180" height="210" as="geometry" />
        </mxCell>
        <mxCell id="3BHlE7sxE0ALU3HnH_fy-10" value="+ ANcybFishDataV1.0(String[ ])&#xa;&#xa;+ mac: String&#xa;+ date: String&#xa;+ time: String&#xa;+ latitude: float&#xa;+ longitude: float&#xa;+ qualPos: String" style="text;strokeColor=none;fillColor=none;align=left;verticalAlign=top;spacingLeft=4;spacingRight=4;overflow=hidden;rotatable=0;points=[[0,0.5],[1,0.5]];portConstraint=eastwest;" parent="3BHlE7sxE0ALU3HnH_fy-9" vertex="1">
          <mxGeometry y="26" width="180" height="124" as="geometry" />
        </mxCell>
        <mxCell id="3BHlE7sxE0ALU3HnH_fy-11" value="" style="line;strokeWidth=1;fillColor=none;align=left;verticalAlign=middle;spacingTop=-1;spacingLeft=3;spacingRight=3;rotatable=0;labelPosition=right;points=[];portConstraint=eastwest;" parent="3BHlE7sxE0ALU3HnH_fy-9" vertex="1">
          <mxGeometry y="150" width="180" height="8" as="geometry" />
        </mxCell>
        <mxCell id="3BHlE7sxE0ALU3HnH_fy-12" value="+ get(type): type&#xa;+ set(type): type&#xa;+ toString(): String" style="text;strokeColor=none;fillColor=none;align=left;verticalAlign=top;spacingLeft=4;spacingRight=4;overflow=hidden;rotatable=0;points=[[0,0.5],[1,0.5]];portConstraint=eastwest;" parent="3BHlE7sxE0ALU3HnH_fy-9" vertex="1">
          <mxGeometry y="158" width="180" height="52" as="geometry" />
        </mxCell>
        <mxCell id="3BHlE7sxE0ALU3HnH_fy-20" value="Extends" style="endArrow=block;endSize=16;endFill=0;html=1;rounded=0;exitX=0.5;exitY=0;exitDx=0;exitDy=0;edgeStyle=orthogonalEdgeStyle;" parent="WIyWlLk6GJQsqaUBKTNV-1" source="3BHlE7sxE0ALU3HnH_fy-9" target="3BHlE7sxE0ALU3HnH_fy-15" edge="1">
          <mxGeometry x="-0.0909" width="160" relative="1" as="geometry">
            <mxPoint x="330" y="470" as="sourcePoint" />
            <mxPoint x="490" y="470" as="targetPoint" />
            <mxPoint as="offset" />
          </mxGeometry>
        </mxCell>
        <mxCell id="3BHlE7sxE0ALU3HnH_fy-21" value="ANcybFishData_VerP(Press)" style="swimlane;fontStyle=1;align=center;verticalAlign=top;childLayout=stackLayout;horizontal=1;startSize=26;horizontalStack=0;resizeParent=1;resizeParentMax=0;resizeLast=0;collapsible=1;marginBottom=0;" parent="WIyWlLk6GJQsqaUBKTNV-1" vertex="1">
          <mxGeometry x="545" y="550" width="190" height="220" as="geometry" />
        </mxCell>
        <mxCell id="3BHlE7sxE0ALU3HnH_fy-22" value="+ ANcybFishDataV2(String[ ])&#xa;&#xa;+ version: int&#xa;+ mac: String&#xa;+ date: String&#xa;+ time: String&#xa;+ press: int" style="text;strokeColor=none;fillColor=none;align=left;verticalAlign=top;spacingLeft=4;spacingRight=4;overflow=hidden;rotatable=0;points=[[0,0.5],[1,0.5]];portConstraint=eastwest;" parent="3BHlE7sxE0ALU3HnH_fy-21" vertex="1">
          <mxGeometry y="26" width="190" height="124" as="geometry" />
        </mxCell>
        <mxCell id="3BHlE7sxE0ALU3HnH_fy-23" value="" style="line;strokeWidth=1;fillColor=none;align=left;verticalAlign=middle;spacingTop=-1;spacingLeft=3;spacingRight=3;rotatable=0;labelPosition=right;points=[];portConstraint=eastwest;" parent="3BHlE7sxE0ALU3HnH_fy-21" vertex="1">
          <mxGeometry y="150" width="190" height="8" as="geometry" />
        </mxCell>
        <mxCell id="3BHlE7sxE0ALU3HnH_fy-24" value="+ get(type): type&#xa;+ set(type): type&#xa;+ toString(): String" style="text;strokeColor=none;fillColor=none;align=left;verticalAlign=top;spacingLeft=4;spacingRight=4;overflow=hidden;rotatable=0;points=[[0,0.5],[1,0.5]];portConstraint=eastwest;" parent="3BHlE7sxE0ALU3HnH_fy-21" vertex="1">
          <mxGeometry y="158" width="190" height="62" as="geometry" />
        </mxCell>
        <mxCell id="3BHlE7sxE0ALU3HnH_fy-26" value="MqttClient" style="shape=folder;fontStyle=1;spacingTop=10;tabWidth=40;tabHeight=14;tabPosition=left;html=1;align=center;verticalAlign=top;" parent="WIyWlLk6GJQsqaUBKTNV-1" vertex="1">
          <mxGeometry x="960" y="40" width="530" height="320" as="geometry" />
        </mxCell>
        <mxCell id="3BHlE7sxE0ALU3HnH_fy-27" value="ANcybMqttClient" style="swimlane;fontStyle=1;align=center;verticalAlign=top;childLayout=stackLayout;horizontal=1;startSize=26;horizontalStack=0;resizeParent=1;resizeParentMax=0;resizeLast=0;collapsible=1;marginBottom=0;" parent="WIyWlLk6GJQsqaUBKTNV-1" vertex="1">
          <mxGeometry x="990" y="80" width="340" height="240" as="geometry" />
        </mxCell>
        <mxCell id="3BHlE7sxE0ALU3HnH_fy-91" value="+ ANcybMqttClient(String url, String topic, int qos, String clienId)" style="text;strokeColor=none;fillColor=none;align=left;verticalAlign=top;spacingLeft=4;spacingRight=4;overflow=hidden;rotatable=0;points=[[0,0.5],[1,0.5]];portConstraint=eastwest;" parent="3BHlE7sxE0ALU3HnH_fy-27" vertex="1">
          <mxGeometry y="26" width="340" height="28" as="geometry" />
        </mxCell>
        <mxCell id="3BHlE7sxE0ALU3HnH_fy-28" value="+ subscriber: MqttClient&#xa;+ datalog: DataLogger&#xa;+ mqttdata : ArrayList&lt;ANcybFishData&gt;" style="text;strokeColor=none;fillColor=none;align=left;verticalAlign=top;spacingLeft=4;spacingRight=4;overflow=hidden;rotatable=0;points=[[0,0.5],[1,0.5]];portConstraint=eastwest;" parent="3BHlE7sxE0ALU3HnH_fy-27" vertex="1">
          <mxGeometry y="54" width="340" height="66" as="geometry" />
        </mxCell>
        <mxCell id="3BHlE7sxE0ALU3HnH_fy-29" value="" style="line;strokeWidth=1;fillColor=none;align=left;verticalAlign=middle;spacingTop=-1;spacingLeft=3;spacingRight=3;rotatable=0;labelPosition=right;points=[];portConstraint=eastwest;" parent="3BHlE7sxE0ALU3HnH_fy-27" vertex="1">
          <mxGeometry y="120" width="340" height="8" as="geometry" />
        </mxCell>
        <mxCell id="3BHlE7sxE0ALU3HnH_fy-30" value="+ get(type): type&#xa;+ set(type): type&#xa;+ connectionLost(Throwable): void&#xa;+ deliveryComplete(IMqttDeliveryToken): void" style="text;strokeColor=none;fillColor=none;align=left;verticalAlign=top;spacingLeft=4;spacingRight=4;overflow=hidden;rotatable=0;points=[[0,0.5],[1,0.5]];portConstraint=eastwest;" parent="3BHlE7sxE0ALU3HnH_fy-27" vertex="1">
          <mxGeometry y="128" width="340" height="72" as="geometry" />
        </mxCell>
        <mxCell id="3BHlE7sxE0ALU3HnH_fy-89" value="" style="line;strokeWidth=1;fillColor=none;align=left;verticalAlign=middle;spacingTop=-1;spacingLeft=3;spacingRight=3;rotatable=0;labelPosition=right;points=[];portConstraint=eastwest;" parent="3BHlE7sxE0ALU3HnH_fy-27" vertex="1">
          <mxGeometry y="200" width="340" height="8" as="geometry" />
        </mxCell>
        <mxCell id="3BHlE7sxE0ALU3HnH_fy-88" value="+ messageArrived(String, MqttMessage): void" style="text;strokeColor=none;fillColor=none;align=left;verticalAlign=top;spacingLeft=4;spacingRight=4;overflow=hidden;rotatable=0;points=[[0,0.5],[1,0.5]];portConstraint=eastwest;" parent="3BHlE7sxE0ALU3HnH_fy-27" vertex="1">
          <mxGeometry y="208" width="340" height="32" as="geometry" />
        </mxCell>
        <mxCell id="3BHlE7sxE0ALU3HnH_fy-41" value="Extends" style="endArrow=block;endSize=16;endFill=0;html=1;rounded=0;exitX=0.5;exitY=0;exitDx=0;exitDy=0;edgeStyle=orthogonalEdgeStyle;jumpStyle=none;" parent="WIyWlLk6GJQsqaUBKTNV-1" source="3BHlE7sxE0ALU3HnH_fy-21" target="3BHlE7sxE0ALU3HnH_fy-15" edge="1">
          <mxGeometry width="160" relative="1" as="geometry">
            <mxPoint x="150" y="520" as="sourcePoint" />
            <mxPoint x="140" y="340" as="targetPoint" />
            <mxPoint as="offset" />
          </mxGeometry>
        </mxCell>
        <mxCell id="3BHlE7sxE0ALU3HnH_fy-51" value="MqttDataReceived" style="swimlane;fontStyle=1;align=center;verticalAlign=top;childLayout=stackLayout;horizontal=1;startSize=26;horizontalStack=0;resizeParent=1;resizeParentMax=0;resizeLast=0;collapsible=1;marginBottom=0;" parent="WIyWlLk6GJQsqaUBKTNV-1" vertex="1">
          <mxGeometry x="520" y="312" width="240" height="52" as="geometry" />
        </mxCell>
        <mxCell id="3BHlE7sxE0ALU3HnH_fy-54" value="+ createData(String[ ]): ANcybFishData" style="text;strokeColor=none;fillColor=none;align=left;verticalAlign=top;spacingLeft=4;spacingRight=4;overflow=hidden;rotatable=0;points=[[0,0.5],[1,0.5]];portConstraint=eastwest;" parent="3BHlE7sxE0ALU3HnH_fy-51" vertex="1">
          <mxGeometry y="26" width="240" height="26" as="geometry" />
        </mxCell>
        <mxCell id="3BHlE7sxE0ALU3HnH_fy-64" value="return" style="html=1;verticalAlign=bottom;endArrow=open;dashed=1;endSize=8;rounded=0;jumpStyle=none;exitX=0;exitY=0.5;exitDx=0;exitDy=0;edgeStyle=orthogonalEdgeStyle;entryX=1;entryY=0.5;entryDx=0;entryDy=0;" parent="WIyWlLk6GJQsqaUBKTNV-1" source="3BHlE7sxE0ALU3HnH_fy-51" target="3BHlE7sxE0ALU3HnH_fy-16" edge="1">
          <mxGeometry relative="1" as="geometry">
            <mxPoint x="520" y="378" as="sourcePoint" />
            <mxPoint x="330" y="700" as="targetPoint" />
          </mxGeometry>
        </mxCell>
        <mxCell id="3BHlE7sxE0ALU3HnH_fy-66" value="Use" style="endArrow=open;endSize=12;dashed=1;html=1;rounded=0;jumpStyle=none;exitX=0;exitY=0.5;exitDx=0;exitDy=0;entryX=1;entryY=0.5;entryDx=0;entryDy=0;edgeStyle=orthogonalEdgeStyle;" parent="WIyWlLk6GJQsqaUBKTNV-1" source="3BHlE7sxE0ALU3HnH_fy-88" target="3BHlE7sxE0ALU3HnH_fy-54" edge="1">
          <mxGeometry x="-0.1441" width="160" relative="1" as="geometry">
            <mxPoint x="690" y="420" as="sourcePoint" />
            <mxPoint x="910" y="350" as="targetPoint" />
            <Array as="points">
              <mxPoint x="840" y="304" />
              <mxPoint x="840" y="351" />
            </Array>
            <mxPoint as="offset" />
          </mxGeometry>
        </mxCell>
        <mxCell id="3BHlE7sxE0ALU3HnH_fy-90" value="dataLogger" style="shape=folder;fontStyle=1;spacingTop=10;tabWidth=40;tabHeight=14;tabPosition=left;html=1;align=center;verticalAlign=top;" parent="WIyWlLk6GJQsqaUBKTNV-1" vertex="1">
          <mxGeometry x="960" y="400" width="530" height="320" as="geometry" />
        </mxCell>
        <mxCell id="3BHlE7sxE0ALU3HnH_fy-95" value="exceptions" style="shape=folder;fontStyle=1;spacingTop=10;tabWidth=40;tabHeight=14;tabPosition=left;html=1;align=center;verticalAlign=top;" parent="WIyWlLk6GJQsqaUBKTNV-1" vertex="1">
          <mxGeometry x="840" y="760" width="270" height="260" as="geometry" />
        </mxCell>
        <mxCell id="3BHlE7sxE0ALU3HnH_fy-96" value="DataLogger" style="swimlane;fontStyle=1;align=center;verticalAlign=top;childLayout=stackLayout;horizontal=1;startSize=26;horizontalStack=0;resizeParent=1;resizeParentMax=0;resizeLast=0;collapsible=1;marginBottom=0;" parent="WIyWlLk6GJQsqaUBKTNV-1" vertex="1">
          <mxGeometry x="1000" y="450" width="340" height="160" as="geometry" />
        </mxCell>
        <mxCell id="3BHlE7sxE0ALU3HnH_fy-97" value="+ DataLogger()&#xa;&#xa;+ fileName: String" style="text;strokeColor=none;fillColor=none;align=left;verticalAlign=top;spacingLeft=4;spacingRight=4;overflow=hidden;rotatable=0;points=[[0,0.5],[1,0.5]];portConstraint=eastwest;" parent="3BHlE7sxE0ALU3HnH_fy-96" vertex="1">
          <mxGeometry y="26" width="340" height="54" as="geometry" />
        </mxCell>
        <mxCell id="3BHlE7sxE0ALU3HnH_fy-103" value="" style="line;strokeWidth=1;fillColor=none;align=left;verticalAlign=middle;spacingTop=-1;spacingLeft=3;spacingRight=3;rotatable=0;labelPosition=right;points=[];portConstraint=eastwest;" parent="3BHlE7sxE0ALU3HnH_fy-96" vertex="1">
          <mxGeometry y="80" width="340" height="8" as="geometry" />
        </mxCell>
        <mxCell id="3BHlE7sxE0ALU3HnH_fy-100" value="+ writeOnDataLogger(DataReceived): void" style="text;strokeColor=none;fillColor=none;align=left;verticalAlign=top;spacingLeft=4;spacingRight=4;overflow=hidden;rotatable=0;points=[[0,0.5],[1,0.5]];portConstraint=eastwest;" parent="3BHlE7sxE0ALU3HnH_fy-96" vertex="1">
          <mxGeometry y="88" width="340" height="32" as="geometry" />
        </mxCell>
        <mxCell id="3BHlE7sxE0ALU3HnH_fy-101" value="" style="line;strokeWidth=1;fillColor=none;align=left;verticalAlign=middle;spacingTop=-1;spacingLeft=3;spacingRight=3;rotatable=0;labelPosition=right;points=[];portConstraint=eastwest;" parent="3BHlE7sxE0ALU3HnH_fy-96" vertex="1">
          <mxGeometry y="120" width="340" height="8" as="geometry" />
        </mxCell>
        <mxCell id="3BHlE7sxE0ALU3HnH_fy-102" value="+ messageArrived(String, MqttMessage): void" style="text;strokeColor=none;fillColor=none;align=left;verticalAlign=top;spacingLeft=4;spacingRight=4;overflow=hidden;rotatable=0;points=[[0,0.5],[1,0.5]];portConstraint=eastwest;" parent="3BHlE7sxE0ALU3HnH_fy-96" vertex="1">
          <mxGeometry y="128" width="340" height="32" as="geometry" />
        </mxCell>
        <mxCell id="3BHlE7sxE0ALU3HnH_fy-106" value="Use" style="endArrow=open;endSize=12;dashed=1;html=1;rounded=0;jumpStyle=none;exitX=0;exitY=0.5;exitDx=0;exitDy=0;edgeStyle=orthogonalEdgeStyle;" parent="WIyWlLk6GJQsqaUBKTNV-1" source="3BHlE7sxE0ALU3HnH_fy-100" target="3BHlE7sxE0ALU3HnH_fy-15" edge="1">
          <mxGeometry x="-0.2097" width="160" relative="1" as="geometry">
            <mxPoint x="1000" y="334" as="sourcePoint" />
            <mxPoint x="820" y="341" as="targetPoint" />
            <Array as="points">
              <mxPoint x="920" y="554" />
              <mxPoint x="920" y="410" />
            </Array>
            <mxPoint as="offset" />
          </mxGeometry>
        </mxCell>
        <mxCell id="3BHlE7sxE0ALU3HnH_fy-110" value="DEVO FARE DELLE ECCEZIONI PER VEDERE SE QUELLO CHE RICEVO E&#39; BUONO" style="shape=hexagon;perimeter=hexagonPerimeter2;whiteSpace=wrap;html=1;fixedSize=1;" parent="WIyWlLk6GJQsqaUBKTNV-1" vertex="1">
          <mxGeometry x="660" y="220" width="160" height="80" as="geometry" />
        </mxCell>
        <mxCell id="3BHlE7sxE0ALU3HnH_fy-113" value="controller" style="shape=folder;fontStyle=1;spacingTop=10;tabWidth=40;tabHeight=14;tabPosition=left;html=1;align=center;verticalAlign=top;" parent="WIyWlLk6GJQsqaUBKTNV-1" vertex="1">
          <mxGeometry x="1560" y="40" width="720" height="320" as="geometry" />
        </mxCell>
        <mxCell id="3BHlE7sxE0ALU3HnH_fy-114" value="model" style="shape=folder;fontStyle=1;spacingTop=10;tabWidth=40;tabHeight=14;tabPosition=left;html=1;align=center;verticalAlign=top;" parent="WIyWlLk6GJQsqaUBKTNV-1" vertex="1">
          <mxGeometry x="1560" y="400" width="720" height="550" as="geometry" />
        </mxCell>
        <mxCell id="3BHlE7sxE0ALU3HnH_fy-116" value="RIFLETTERE SE FARE ANCHE UN PUBLISHER" style="ellipse;whiteSpace=wrap;html=1;aspect=fixed;" parent="WIyWlLk6GJQsqaUBKTNV-1" vertex="1">
          <mxGeometry x="1350" y="180" width="120" height="120" as="geometry" />
        </mxCell>
        <mxCell id="isNRoNqo-K9MIMpgRt4Y-4" value="Use" style="endArrow=open;endSize=12;dashed=1;html=1;rounded=1;sketch=0;edgeStyle=orthogonalEdgeStyle;" parent="WIyWlLk6GJQsqaUBKTNV-1" target="3BHlE7sxE0ALU3HnH_fy-2" edge="1">
          <mxGeometry width="160" relative="1" as="geometry">
            <mxPoint x="640" y="312" as="sourcePoint" />
            <mxPoint x="410" y="-20" as="targetPoint" />
            <Array as="points">
              <mxPoint x="640" y="230" />
              <mxPoint x="290" y="230" />
              <mxPoint x="290" y="66" />
            </Array>
          </mxGeometry>
        </mxCell>
        <mxCell id="3BHlE7sxE0ALU3HnH_fy-36" value="ANcybFishData_VerGT(GPS+Temp)" style="swimlane;fontStyle=1;align=center;verticalAlign=top;childLayout=stackLayout;horizontal=1;startSize=26;horizontalStack=0;resizeParent=1;resizeParentMax=0;resizeLast=0;collapsible=1;marginBottom=0;" parent="WIyWlLk6GJQsqaUBKTNV-1" vertex="1">
          <mxGeometry x="90" y="850" width="300" height="250" as="geometry" />
        </mxCell>
        <mxCell id="3BHlE7sxE0ALU3HnH_fy-37" value="+ ANcybFishDataV3(String[ ])&#xa;&#xa;+ version: int&#xa;+ mac: String&#xa;+ date: String&#xa;+ time: String&#xa;+ latitude: String&#xa;+ longitude: String&#xa;+ qualPos: String&#xa;+ temp: float" style="text;strokeColor=none;fillColor=none;align=left;verticalAlign=top;spacingLeft=4;spacingRight=4;overflow=hidden;rotatable=0;points=[[0,0.5],[1,0.5]];portConstraint=eastwest;" parent="3BHlE7sxE0ALU3HnH_fy-36" vertex="1">
          <mxGeometry y="26" width="300" height="154" as="geometry" />
        </mxCell>
        <mxCell id="3BHlE7sxE0ALU3HnH_fy-38" value="" style="line;strokeWidth=1;fillColor=none;align=left;verticalAlign=middle;spacingTop=-1;spacingLeft=3;spacingRight=3;rotatable=0;labelPosition=right;points=[];portConstraint=eastwest;" parent="3BHlE7sxE0ALU3HnH_fy-36" vertex="1">
          <mxGeometry y="180" width="300" height="8" as="geometry" />
        </mxCell>
        <mxCell id="3BHlE7sxE0ALU3HnH_fy-39" value="+ get(type): type&#xa;+ set(type): type&#xa;+ toString(): String" style="text;strokeColor=none;fillColor=none;align=left;verticalAlign=top;spacingLeft=4;spacingRight=4;overflow=hidden;rotatable=0;points=[[0,0.5],[1,0.5]];portConstraint=eastwest;" parent="3BHlE7sxE0ALU3HnH_fy-36" vertex="1">
          <mxGeometry y="188" width="300" height="62" as="geometry" />
        </mxCell>
        <mxCell id="isNRoNqo-K9MIMpgRt4Y-5" value="Extends" style="endArrow=block;endSize=16;endFill=0;html=1;rounded=1;sketch=0;exitX=0.5;exitY=0;exitDx=0;exitDy=0;edgeStyle=orthogonalEdgeStyle;" parent="WIyWlLk6GJQsqaUBKTNV-1" source="3BHlE7sxE0ALU3HnH_fy-36" target="3BHlE7sxE0ALU3HnH_fy-9" edge="1">
          <mxGeometry width="160" relative="1" as="geometry">
            <mxPoint x="620" y="880" as="sourcePoint" />
            <mxPoint x="150" y="760" as="targetPoint" />
          </mxGeometry>
        </mxCell>
        <mxCell id="isNRoNqo-K9MIMpgRt4Y-6" value="ANcybRestController" style="swimlane;fontStyle=1;align=center;verticalAlign=top;childLayout=stackLayout;horizontal=1;startSize=26;horizontalStack=0;resizeParent=1;resizeParentMax=0;resizeLast=0;collapsible=1;marginBottom=0;" parent="WIyWlLk6GJQsqaUBKTNV-1" vertex="1">
          <mxGeometry x="1600" y="80" width="610" height="200" as="geometry" />
        </mxCell>
        <mxCell id="isNRoNqo-K9MIMpgRt4Y-7" value="+ ANcybMqttClient(String url, String topic, int qos, String clienId)" style="text;strokeColor=none;fillColor=none;align=left;verticalAlign=top;spacingLeft=4;spacingRight=4;overflow=hidden;rotatable=0;points=[[0,0.5],[1,0.5]];portConstraint=eastwest;" parent="isNRoNqo-K9MIMpgRt4Y-6" vertex="1">
          <mxGeometry y="26" width="610" height="28" as="geometry" />
        </mxCell>
        <mxCell id="isNRoNqo-K9MIMpgRt4Y-9" value="" style="line;strokeWidth=1;fillColor=none;align=left;verticalAlign=middle;spacingTop=-1;spacingLeft=3;spacingRight=3;rotatable=0;labelPosition=right;points=[];portConstraint=eastwest;" parent="isNRoNqo-K9MIMpgRt4Y-6" vertex="1">
          <mxGeometry y="54" width="610" height="8" as="geometry" />
        </mxCell>
        <mxCell id="isNRoNqo-K9MIMpgRt4Y-10" value="+ @RequestMapping(&quot;/{macAddr}/device&quot;, GET) &#xa;+ @RequestMapping(&quot;/{macAddr}/forecast&quot;, GET)&#xa;+ @RequestMapping(&quot;/{macAddr}/stats&quot;, GET)&#xa;+ @RequestMapping(&quot;/{macAddr}/forecast/stats&quot;,GET)&#xa;+ @RequestMapping(&quot;/{macAddr}/filter&quot;, GET)&#xa;+ @RequestMapping(&quot;/{macAddr}/forecast/filter&quot;, GET)" style="text;strokeColor=none;fillColor=none;align=left;verticalAlign=top;spacingLeft=4;spacingRight=4;overflow=hidden;rotatable=0;points=[[0,0.5],[1,0.5]];portConstraint=eastwest;" parent="isNRoNqo-K9MIMpgRt4Y-6" vertex="1">
          <mxGeometry y="62" width="610" height="98" as="geometry" />
        </mxCell>
        <mxCell id="isNRoNqo-K9MIMpgRt4Y-11" value="" style="line;strokeWidth=1;fillColor=none;align=left;verticalAlign=middle;spacingTop=-1;spacingLeft=3;spacingRight=3;rotatable=0;labelPosition=right;points=[];portConstraint=eastwest;" parent="isNRoNqo-K9MIMpgRt4Y-6" vertex="1">
          <mxGeometry y="160" width="610" height="8" as="geometry" />
        </mxCell>
        <mxCell id="isNRoNqo-K9MIMpgRt4Y-12" value="+ messageArrived(String, MqttMessage): void" style="text;strokeColor=none;fillColor=none;align=left;verticalAlign=top;spacingLeft=4;spacingRight=4;overflow=hidden;rotatable=0;points=[[0,0.5],[1,0.5]];portConstraint=eastwest;" parent="isNRoNqo-K9MIMpgRt4Y-6" vertex="1">
          <mxGeometry y="168" width="610" height="32" as="geometry" />
        </mxCell>
        <mxCell id="isNRoNqo-K9MIMpgRt4Y-13" value="RIFLETTERE SE FARE ANCHE UN POST SE VOGLIAMO METERE IL PUBLISHER" style="ellipse;whiteSpace=wrap;html=1;aspect=fixed;" parent="WIyWlLk6GJQsqaUBKTNV-1" vertex="1">
          <mxGeometry x="2080" y="270" width="120" height="120" as="geometry" />
        </mxCell>
        <mxCell id="isNRoNqo-K9MIMpgRt4Y-14" value="" style="curved=1;endArrow=classic;html=1;rounded=1;sketch=0;entryX=0;entryY=0.5;entryDx=0;entryDy=0;" parent="WIyWlLk6GJQsqaUBKTNV-1" source="3BHlE7sxE0ALU3HnH_fy-116" target="isNRoNqo-K9MIMpgRt4Y-13" edge="1">
          <mxGeometry width="50" height="50" relative="1" as="geometry">
            <mxPoint x="1890" y="220" as="sourcePoint" />
            <mxPoint x="1940" y="170" as="targetPoint" />
            <Array as="points">
              <mxPoint x="1730" y="350" />
              <mxPoint x="1950" y="270" />
            </Array>
          </mxGeometry>
        </mxCell>
        <mxCell id="isNRoNqo-K9MIMpgRt4Y-15" value="ForecastObject" style="swimlane;fontStyle=1;align=center;verticalAlign=top;childLayout=stackLayout;horizontal=1;startSize=26;horizontalStack=0;resizeParent=1;resizeParentMax=0;resizeLast=0;collapsible=1;marginBottom=0;" parent="WIyWlLk6GJQsqaUBKTNV-1" vertex="1">
          <mxGeometry x="1590" y="440" width="655" height="300" as="geometry" />
        </mxCell>
        <mxCell id="isNRoNqo-K9MIMpgRt4Y-16" value="+ ForecastObject(String macAddr, double latitude, double longitude, String time, float waveHeight, float currentDirection)" style="text;strokeColor=none;fillColor=none;align=left;verticalAlign=top;spacingLeft=4;spacingRight=4;overflow=hidden;rotatable=0;points=[[0,0.5],[1,0.5]];portConstraint=eastwest;" parent="isNRoNqo-K9MIMpgRt4Y-15" vertex="1">
          <mxGeometry y="26" width="655" height="28" as="geometry" />
        </mxCell>
        <mxCell id="isNRoNqo-K9MIMpgRt4Y-17" value="" style="line;strokeWidth=1;fillColor=none;align=left;verticalAlign=middle;spacingTop=-1;spacingLeft=3;spacingRight=3;rotatable=0;labelPosition=right;points=[];portConstraint=eastwest;" parent="isNRoNqo-K9MIMpgRt4Y-15" vertex="1">
          <mxGeometry y="54" width="655" height="8" as="geometry" />
        </mxCell>
        <mxCell id="isNRoNqo-K9MIMpgRt4Y-18" value="+ getMacAddress(): String&#xa;+ setMacAddress(String): void&#xa;+ getTime(): String&#xa;+ setTime(String): void&#xa;+ getWaveHeight(): float&#xa;+ setWaveHeight(float): void&#xa;+ getCurrentDirection(): float&#xa;+ setCurrentDirection(float): void&#xa;+ getLatitude(): double&#xa;+ setLatitude(double): void&#xa;+ getLongitude(): double&#xa;+ setLongitude(double): void&#xa;+ toJSON(): JSONObject&#xa;+ toString(): String&#xa;" style="text;strokeColor=none;fillColor=none;align=left;verticalAlign=top;spacingLeft=4;spacingRight=4;overflow=hidden;rotatable=0;points=[[0,0.5],[1,0.5]];portConstraint=eastwest;fontSize=13;spacing=1;spacingBottom=0;spacingTop=-1;" parent="isNRoNqo-K9MIMpgRt4Y-15" vertex="1">
          <mxGeometry y="62" width="655" height="238" as="geometry" />
        </mxCell>
        <mxCell id="isNRoNqo-K9MIMpgRt4Y-22" value="implements" style="endArrow=block;endSize=16;endFill=0;html=1;rounded=1;sketch=0;exitX=0.5;exitY=0;exitDx=0;exitDy=0;edgeStyle=orthogonalEdgeStyle;" parent="WIyWlLk6GJQsqaUBKTNV-1" source="3BHlE7sxE0ALU3HnH_fy-15" target="isNRoNqo-K9MIMpgRt4Y-27" edge="1">
          <mxGeometry width="160" relative="1" as="geometry">
            <mxPoint x="300" y="600" as="sourcePoint" />
            <mxPoint x="180" y="305" as="targetPoint" />
            <Array as="points">
              <mxPoint x="390" y="250" />
              <mxPoint x="165" y="250" />
            </Array>
          </mxGeometry>
        </mxCell>
        <mxCell id="isNRoNqo-K9MIMpgRt4Y-27" value="&lt;p style=&quot;margin: 0px ; margin-top: 4px ; text-align: center&quot;&gt;&lt;i&gt;&amp;lt;&amp;lt;Interface&amp;gt;&amp;gt;&lt;b&gt;DataReceived&lt;/b&gt;&lt;/i&gt;&lt;br&gt;&lt;/p&gt;&lt;p style=&quot;margin: 0px ; margin-left: 4px&quot;&gt;+ date: String&lt;br&gt;+ time: String&lt;/p&gt;&lt;hr size=&quot;1&quot;&gt;&lt;p style=&quot;margin: 0px ; margin-left: 4px&quot;&gt;&lt;/p&gt;+ get(type): type&lt;br style=&quot;padding: 0px ; margin: 0px&quot;&gt;+ set(type): type&lt;br&gt;+ toString(tyoe): String" style="verticalAlign=top;align=left;overflow=fill;fontSize=12;fontFamily=Helvetica;html=1;rounded=0;sketch=0;" parent="WIyWlLk6GJQsqaUBKTNV-1" vertex="1">
          <mxGeometry x="80" y="50" width="170" height="110" as="geometry" />
        </mxCell>
        <mxCell id="isNRoNqo-K9MIMpgRt4Y-29" value="Use" style="endArrow=open;endSize=12;dashed=1;html=1;rounded=1;sketch=0;exitX=0;exitY=0.5;exitDx=0;exitDy=0;edgeStyle=orthogonalEdgeStyle;" parent="WIyWlLk6GJQsqaUBKTNV-1" source="isNRoNqo-K9MIMpgRt4Y-10" target="isNRoNqo-K9MIMpgRt4Y-15" edge="1">
          <mxGeometry width="160" relative="1" as="geometry">
            <mxPoint x="1660" y="360" as="sourcePoint" />
            <mxPoint x="1820" y="360" as="targetPoint" />
            <Array as="points">
              <mxPoint x="1600" y="178" />
              <mxPoint x="1520" y="178" />
              <mxPoint x="1520" y="548" />
            </Array>
          </mxGeometry>
        </mxCell>
        <mxCell id="isNRoNqo-K9MIMpgRt4Y-31" value="&lt;p style=&quot;margin: 0px ; margin-top: 4px ; text-align: center&quot;&gt;&lt;b&gt;CurrentDateTime&lt;/b&gt;&lt;/p&gt;&lt;hr size=&quot;1&quot;&gt;&lt;p style=&quot;margin: 0px ; margin-left: 4px&quot;&gt;&lt;/p&gt;&lt;p style=&quot;margin: 0px ; margin-left: 4px&quot;&gt;&lt;span&gt;+ currentDateTime(): String&lt;/span&gt;&lt;br&gt;&lt;/p&gt;&lt;p style=&quot;margin: 0px ; margin-left: 4px&quot;&gt;+ currentDate(): String&lt;/p&gt;&lt;p style=&quot;margin: 0px ; margin-left: 4px&quot;&gt;+ currentTime(): String&lt;/p&gt;" style="verticalAlign=top;align=left;overflow=fill;fontSize=12;fontFamily=Helvetica;html=1;rounded=0;sketch=0;" parent="WIyWlLk6GJQsqaUBKTNV-1" vertex="1">
          <mxGeometry x="480" y="90" width="140" height="90" as="geometry" />
        </mxCell>
        <mxCell id="isNRoNqo-K9MIMpgRt4Y-34" value="Forecast" style="swimlane;fontStyle=1;align=center;verticalAlign=top;childLayout=stackLayout;horizontal=1;startSize=26;horizontalStack=0;resizeParent=1;resizeParentMax=0;resizeLast=0;collapsible=1;marginBottom=0;rounded=0;sketch=0;" parent="WIyWlLk6GJQsqaUBKTNV-1" vertex="1">
          <mxGeometry x="1590" y="770" width="650" height="170" as="geometry" />
        </mxCell>
        <mxCell id="isNRoNqo-K9MIMpgRt4Y-35" value="+ Forecast(ArrayList&lt;ForecastList&gt;)&#xa;" style="text;strokeColor=none;fillColor=none;align=left;verticalAlign=top;spacingLeft=4;spacingRight=4;overflow=hidden;rotatable=0;points=[[0,0.5],[1,0.5]];portConstraint=eastwest;rounded=0;sketch=0;" parent="isNRoNqo-K9MIMpgRt4Y-34" vertex="1">
          <mxGeometry y="26" width="650" height="34" as="geometry" />
        </mxCell>
        <mxCell id="isNRoNqo-K9MIMpgRt4Y-36" value="" style="line;strokeWidth=1;fillColor=none;align=left;verticalAlign=middle;spacingTop=-1;spacingLeft=3;spacingRight=3;rotatable=0;labelPosition=right;points=[];portConstraint=eastwest;rounded=0;sketch=0;" parent="isNRoNqo-K9MIMpgRt4Y-34" vertex="1">
          <mxGeometry y="60" width="650" height="8" as="geometry" />
        </mxCell>
        <mxCell id="isNRoNqo-K9MIMpgRt4Y-37" value="+ getForecastLength(): int&#xa;+ addToForecast(ForecastObject): void&#xa;+ getForecastObject(int index): ForecastObject" style="text;strokeColor=none;fillColor=none;align=left;verticalAlign=top;spacingLeft=4;spacingRight=4;overflow=hidden;rotatable=0;points=[[0,0.5],[1,0.5]];portConstraint=eastwest;rounded=0;sketch=0;" parent="isNRoNqo-K9MIMpgRt4Y-34" vertex="1">
          <mxGeometry y="68" width="650" height="102" as="geometry" />
        </mxCell>
        <mxCell id="isNRoNqo-K9MIMpgRt4Y-38" value="filters" style="shape=folder;fontStyle=1;spacingTop=10;tabWidth=40;tabHeight=14;tabPosition=left;html=1;align=center;verticalAlign=top;" parent="WIyWlLk6GJQsqaUBKTNV-1" vertex="1">
          <mxGeometry x="1090" y="1050" width="530" height="500" as="geometry" />
        </mxCell>
        <mxCell id="isNRoNqo-K9MIMpgRt4Y-39" value="&lt;p style=&quot;margin: 0px ; margin-top: 4px ; text-align: center&quot;&gt;&lt;b&gt;StringToFloat&lt;/b&gt;&lt;/p&gt;&lt;hr size=&quot;1&quot;&gt;&lt;p style=&quot;margin: 0px ; margin-left: 4px&quot;&gt;&lt;/p&gt;&lt;p style=&quot;margin: 0px ; margin-left: 4px&quot;&gt;+ stringToFloat(): void&lt;/p&gt;" style="verticalAlign=top;align=left;overflow=fill;fontSize=12;fontFamily=Helvetica;html=1;rounded=0;sketch=0;" parent="WIyWlLk6GJQsqaUBKTNV-1" vertex="1">
          <mxGeometry x="630" y="50" width="125" height="90" as="geometry" />
        </mxCell>
        <mxCell id="isNRoNqo-K9MIMpgRt4Y-41" value="stats" style="shape=folder;fontStyle=1;spacingTop=10;tabWidth=40;tabHeight=14;tabPosition=left;html=1;align=center;verticalAlign=top;" parent="WIyWlLk6GJQsqaUBKTNV-1" vertex="1">
          <mxGeometry x="1640" y="1050" width="680" height="360" as="geometry" />
        </mxCell>
        <mxCell id="RA5aEVkmyOFDF_g9N0md-10" value="Extends" style="endArrow=block;endSize=16;endFill=0;html=1;rounded=1;sketch=0;edgeStyle=orthogonalEdgeStyle;exitX=0.5;exitY=0;exitDx=0;exitDy=0;" parent="WIyWlLk6GJQsqaUBKTNV-1" source="9sARwrWTkd8ZfWDxSj1S-30" edge="1">
          <mxGeometry width="160" relative="1" as="geometry">
            <mxPoint x="1355" y="1260" as="sourcePoint" />
            <mxPoint x="1356" y="1210" as="targetPoint" />
            <Array as="points">
              <mxPoint x="1355" y="1240" />
              <mxPoint x="1356" y="1240" />
            </Array>
          </mxGeometry>
        </mxCell>
        <mxCell id="RA5aEVkmyOFDF_g9N0md-14" value="Extends" style="endArrow=block;endSize=16;endFill=0;html=1;rounded=1;sketch=0;edgeStyle=orthogonalEdgeStyle;entryX=0.5;entryY=1;entryDx=0;entryDy=0;exitX=0.551;exitY=0.018;exitDx=0;exitDy=0;exitPerimeter=0;" parent="WIyWlLk6GJQsqaUBKTNV-1" source="RA5aEVkmyOFDF_g9N0md-18" edge="1">
          <mxGeometry x="-0.3452" width="160" relative="1" as="geometry">
            <mxPoint x="1870" y="1260" as="sourcePoint" />
            <mxPoint x="1975" y="1190" as="targetPoint" />
            <Array as="points">
              <mxPoint x="1742" y="1230" />
              <mxPoint x="1975" y="1230" />
            </Array>
            <mxPoint as="offset" />
          </mxGeometry>
        </mxCell>
        <mxCell id="RA5aEVkmyOFDF_g9N0md-15" value="Stats" style="swimlane;" parent="WIyWlLk6GJQsqaUBKTNV-1" vertex="1">
          <mxGeometry x="1875" y="1110" width="200" height="80" as="geometry" />
        </mxCell>
        <mxCell id="RA5aEVkmyOFDF_g9N0md-16" value="AverageWaveHeight" style="swimlane;" parent="WIyWlLk6GJQsqaUBKTNV-1" vertex="1">
          <mxGeometry x="1990" y="1260" width="140" height="80" as="geometry" />
        </mxCell>
        <mxCell id="RA5aEVkmyOFDF_g9N0md-17" value="Extends" style="endArrow=block;endSize=16;endFill=0;html=1;rounded=1;sketch=0;edgeStyle=orthogonalEdgeStyle;exitX=0.5;exitY=0;exitDx=0;exitDy=0;" parent="WIyWlLk6GJQsqaUBKTNV-1" source="RA5aEVkmyOFDF_g9N0md-16" edge="1">
          <mxGeometry width="160" relative="1" as="geometry">
            <mxPoint x="1985" y="1200" as="sourcePoint" />
            <mxPoint x="1975" y="1190" as="targetPoint" />
            <Array as="points">
              <mxPoint x="2065" y="1230" />
              <mxPoint x="1975" y="1230" />
            </Array>
          </mxGeometry>
        </mxCell>
        <mxCell id="RA5aEVkmyOFDF_g9N0md-18" value="AverageTemp" style="swimlane;" parent="WIyWlLk6GJQsqaUBKTNV-1" vertex="1">
          <mxGeometry x="1670" y="1260" width="130" height="80" as="geometry" />
        </mxCell>
        <mxCell id="RA5aEVkmyOFDF_g9N0md-29" value="Use" style="endArrow=open;endSize=12;dashed=1;html=1;rounded=0;exitX=0;exitY=0.5;exitDx=0;exitDy=0;" parent="RA5aEVkmyOFDF_g9N0md-18" source="RA5aEVkmyOFDF_g9N0md-16" edge="1">
          <mxGeometry width="160" relative="1" as="geometry">
            <mxPoint x="75" y="25" as="sourcePoint" />
            <mxPoint x="-820" y="-1120" as="targetPoint" />
          </mxGeometry>
        </mxCell>
        <mxCell id="RA5aEVkmyOFDF_g9N0md-23" value="&lt;p style=&quot;margin: 0px ; margin-top: 4px ; text-align: center&quot;&gt;&lt;b&gt;ArrayAverage&lt;/b&gt;&lt;/p&gt;&lt;hr size=&quot;1&quot;&gt;&lt;p style=&quot;margin: 0px ; margin-left: 4px&quot;&gt;&lt;/p&gt;&lt;p style=&quot;margin: 0px ; margin-left: 4px&quot;&gt;+ arrayAverage(float [ ]): float&lt;/p&gt;" style="verticalAlign=top;align=left;overflow=fill;fontSize=12;fontFamily=Helvetica;html=1;rounded=0;sketch=0;" parent="WIyWlLk6GJQsqaUBKTNV-1" vertex="1">
          <mxGeometry x="760" y="50" width="180" height="90" as="geometry" />
        </mxCell>
        <mxCell id="RA5aEVkmyOFDF_g9N0md-26" value="Use" style="endArrow=open;endSize=12;dashed=1;html=1;rounded=0;exitX=0;exitY=0.5;exitDx=0;exitDy=0;entryX=0.5;entryY=1;entryDx=0;entryDy=0;" parent="WIyWlLk6GJQsqaUBKTNV-1" source="RA5aEVkmyOFDF_g9N0md-18" target="RA5aEVkmyOFDF_g9N0md-23" edge="1">
          <mxGeometry width="160" relative="1" as="geometry">
            <mxPoint x="1720" y="1080" as="sourcePoint" />
            <mxPoint x="1880" y="1080" as="targetPoint" />
          </mxGeometry>
        </mxCell>
        <mxCell id="RA5aEVkmyOFDF_g9N0md-30" value="PositionModule" style="swimlane;" parent="WIyWlLk6GJQsqaUBKTNV-1" vertex="1">
          <mxGeometry x="1822.5" y="1260" width="130" height="80" as="geometry" />
        </mxCell>
        <mxCell id="RA5aEVkmyOFDF_g9N0md-31" value="Extends" style="endArrow=block;endSize=16;endFill=0;html=1;rounded=1;sketch=0;edgeStyle=orthogonalEdgeStyle;exitX=0.5;exitY=0;exitDx=0;exitDy=0;" parent="WIyWlLk6GJQsqaUBKTNV-1" source="RA5aEVkmyOFDF_g9N0md-30" edge="1">
          <mxGeometry width="160" relative="1" as="geometry">
            <mxPoint x="1975" y="1260" as="sourcePoint" />
            <mxPoint x="1975" y="1190" as="targetPoint" />
            <Array as="points">
              <mxPoint x="1887" y="1230" />
              <mxPoint x="1975" y="1230" />
            </Array>
          </mxGeometry>
        </mxCell>
        <mxCell id="RA5aEVkmyOFDF_g9N0md-32" value="AverageCurrentDirection" style="swimlane;" parent="WIyWlLk6GJQsqaUBKTNV-1" vertex="1">
          <mxGeometry x="2150" y="1260" width="150" height="80" as="geometry" />
        </mxCell>
        <mxCell id="RA5aEVkmyOFDF_g9N0md-33" value="Extends" style="endArrow=block;endSize=16;endFill=0;html=1;rounded=1;sketch=0;edgeStyle=orthogonalEdgeStyle;exitX=0.5;exitY=0;exitDx=0;exitDy=0;entryX=0.5;entryY=1;entryDx=0;entryDy=0;" parent="WIyWlLk6GJQsqaUBKTNV-1" source="RA5aEVkmyOFDF_g9N0md-32" target="RA5aEVkmyOFDF_g9N0md-15" edge="1">
          <mxGeometry x="-0.2812" width="160" relative="1" as="geometry">
            <mxPoint x="2075" y="1270" as="sourcePoint" />
            <mxPoint x="1980" y="1190" as="targetPoint" />
            <Array as="points">
              <mxPoint x="2225" y="1230" />
              <mxPoint x="1975" y="1230" />
            </Array>
            <mxPoint as="offset" />
          </mxGeometry>
        </mxCell>
        <mxCell id="RA5aEVkmyOFDF_g9N0md-34" value="Use" style="endArrow=open;endSize=12;dashed=1;html=1;rounded=0;exitX=0;exitY=0.5;exitDx=0;exitDy=0;" parent="WIyWlLk6GJQsqaUBKTNV-1" source="RA5aEVkmyOFDF_g9N0md-32" edge="1">
          <mxGeometry width="160" relative="1" as="geometry">
            <mxPoint x="2010" y="1020" as="sourcePoint" />
            <mxPoint x="850" y="140" as="targetPoint" />
          </mxGeometry>
        </mxCell>
        <mxCell id="meIRkySb0bhvU_n81G1w-0" value="Extends" style="endArrow=block;endSize=16;endFill=0;html=1;rounded=0;exitX=0.5;exitY=0;exitDx=0;exitDy=0;edgeStyle=orthogonalEdgeStyle;" parent="WIyWlLk6GJQsqaUBKTNV-1" source="isNRoNqo-K9MIMpgRt4Y-15" target="isNRoNqo-K9MIMpgRt4Y-27" edge="1">
          <mxGeometry width="160" relative="1" as="geometry">
            <mxPoint x="960" y="900" as="sourcePoint" />
            <mxPoint x="1120" y="900" as="targetPoint" />
            <Array as="points">
              <mxPoint x="1898" y="370" />
              <mxPoint x="145" y="370" />
            </Array>
          </mxGeometry>
        </mxCell>
        <mxCell id="3BHlE7sxE0ALU3HnH_fy-15" value="ANcybFishData" style="swimlane;fontStyle=1;align=center;verticalAlign=top;childLayout=stackLayout;horizontal=1;startSize=26;horizontalStack=0;resizeParent=1;resizeParentMax=0;resizeLast=0;collapsible=1;marginBottom=0;" parent="WIyWlLk6GJQsqaUBKTNV-1" vertex="1">
          <mxGeometry x="310" y="320" width="160" height="160" as="geometry" />
        </mxCell>
        <mxCell id="3BHlE7sxE0ALU3HnH_fy-16" value="+ version: float&#xa;+ mac: String&#xa;+ date: String&#xa;+ time: String" style="text;strokeColor=none;fillColor=none;align=left;verticalAlign=top;spacingLeft=4;spacingRight=4;overflow=hidden;rotatable=0;points=[[0,0.5],[1,0.5]];portConstraint=eastwest;" parent="3BHlE7sxE0ALU3HnH_fy-15" vertex="1">
          <mxGeometry y="26" width="160" height="64" as="geometry" />
        </mxCell>
        <mxCell id="3BHlE7sxE0ALU3HnH_fy-17" value="" style="line;strokeWidth=1;fillColor=none;align=left;verticalAlign=middle;spacingTop=-1;spacingLeft=3;spacingRight=3;rotatable=0;labelPosition=right;points=[];portConstraint=eastwest;" parent="3BHlE7sxE0ALU3HnH_fy-15" vertex="1">
          <mxGeometry y="90" width="160" height="8" as="geometry" />
        </mxCell>
        <mxCell id="3BHlE7sxE0ALU3HnH_fy-18" value="+ get(type): type&#xa;+ set(type): type&#xa;+ toString(): String" style="text;strokeColor=none;fillColor=none;align=left;verticalAlign=top;spacingLeft=4;spacingRight=4;overflow=hidden;rotatable=0;points=[[0,0.5],[1,0.5]];portConstraint=eastwest;" parent="3BHlE7sxE0ALU3HnH_fy-15" vertex="1">
          <mxGeometry y="98" width="160" height="62" as="geometry" />
        </mxCell>
        <mxCell id="VaMENrB3MKc0odFTqjPw-0" value="service" style="shape=folder;fontStyle=1;spacingTop=10;tabWidth=40;tabHeight=14;tabPosition=left;html=1;align=center;verticalAlign=top;" parent="WIyWlLk6GJQsqaUBKTNV-1" vertex="1">
          <mxGeometry x="2330" y="400" width="870" height="550" as="geometry" />
        </mxCell>
        <mxCell id="VaMENrB3MKc0odFTqjPw-6" value="Implements" style="endArrow=block;endSize=16;endFill=0;html=1;rounded=0;fontSize=13;exitX=0;exitY=0.5;exitDx=0;exitDy=0;entryX=0.5;entryY=0;entryDx=0;entryDy=0;edgeStyle=orthogonalEdgeStyle;elbow=vertical;" parent="WIyWlLk6GJQsqaUBKTNV-1" edge="1">
          <mxGeometry x="0.037" width="160" relative="1" as="geometry">
            <mxPoint x="2760" y="582" as="sourcePoint" />
            <mxPoint x="2515" y="480" as="targetPoint" />
            <Array as="points">
              <mxPoint x="2720" y="580" />
              <mxPoint x="2720" y="450" />
              <mxPoint x="2515" y="450" />
            </Array>
            <mxPoint as="offset" />
          </mxGeometry>
        </mxCell>
        <mxCell id="hj5ngC77WGNCJNdUPFqx-2" value="AncybDiagnosticToolServiceImpl" style="swimlane;fontStyle=0;align=center;verticalAlign=top;childLayout=stackLayout;horizontal=1;startSize=26;horizontalStack=0;resizeParent=1;resizeParentMax=0;resizeLast=0;collapsible=1;marginBottom=0;" parent="WIyWlLk6GJQsqaUBKTNV-1" vertex="1">
          <mxGeometry x="2760" y="480" width="390" height="200" as="geometry" />
        </mxCell>
        <mxCell id="hj5ngC77WGNCJNdUPFqx-3" value="+ field: type" style="text;strokeColor=none;fillColor=none;align=left;verticalAlign=top;spacingLeft=4;spacingRight=4;overflow=hidden;rotatable=0;points=[[0,0.5],[1,0.5]];portConstraint=eastwest;" parent="hj5ngC77WGNCJNdUPFqx-2" vertex="1">
          <mxGeometry y="26" width="390" height="26" as="geometry" />
        </mxCell>
        <mxCell id="hj5ngC77WGNCJNdUPFqx-4" value="" style="line;strokeWidth=1;fillColor=none;align=left;verticalAlign=middle;spacingTop=-1;spacingLeft=3;spacingRight=3;rotatable=0;labelPosition=right;points=[];portConstraint=eastwest;" parent="hj5ngC77WGNCJNdUPFqx-2" vertex="1">
          <mxGeometry y="52" width="390" height="8" as="geometry" />
        </mxCell>
        <mxCell id="hj5ngC77WGNCJNdUPFqx-5" value="+ getRealTimeForecast(String): ForecastObject" style="text;strokeColor=none;fillColor=none;align=left;verticalAlign=top;spacingLeft=4;spacingRight=4;overflow=hidden;rotatable=0;points=[[0,0.5],[1,0.5]];portConstraint=eastwest;" parent="hj5ngC77WGNCJNdUPFqx-2" vertex="1">
          <mxGeometry y="60" width="390" height="140" as="geometry" />
        </mxCell>
        <mxCell id="9sARwrWTkd8ZfWDxSj1S-2" value="&lt;&lt;Interface&gt;&gt; AncybDiagnosticToolService" style="swimlane;fontStyle=1;align=center;verticalAlign=top;childLayout=stackLayout;horizontal=1;startSize=26;horizontalStack=0;resizeParent=1;resizeParentMax=0;resizeLast=0;collapsible=1;marginBottom=0;" vertex="1" parent="WIyWlLk6GJQsqaUBKTNV-1">
          <mxGeometry x="2360" y="480" width="300" height="86" as="geometry" />
        </mxCell>
        <mxCell id="9sARwrWTkd8ZfWDxSj1S-3" value="+ field: type" style="text;strokeColor=none;fillColor=none;align=left;verticalAlign=top;spacingLeft=4;spacingRight=4;overflow=hidden;rotatable=0;points=[[0,0.5],[1,0.5]];portConstraint=eastwest;" vertex="1" parent="9sARwrWTkd8ZfWDxSj1S-2">
          <mxGeometry y="26" width="300" height="26" as="geometry" />
        </mxCell>
        <mxCell id="9sARwrWTkd8ZfWDxSj1S-4" value="" style="line;strokeWidth=1;fillColor=none;align=left;verticalAlign=middle;spacingTop=-1;spacingLeft=3;spacingRight=3;rotatable=0;labelPosition=right;points=[];portConstraint=eastwest;" vertex="1" parent="9sARwrWTkd8ZfWDxSj1S-2">
          <mxGeometry y="52" width="300" height="8" as="geometry" />
        </mxCell>
        <mxCell id="9sARwrWTkd8ZfWDxSj1S-5" value="+ getRealTimeForecast(String): ForecastObject" style="text;strokeColor=none;fillColor=none;align=left;verticalAlign=top;spacingLeft=4;spacingRight=4;overflow=hidden;rotatable=0;points=[[0,0.5],[1,0.5]];portConstraint=eastwest;" vertex="1" parent="9sARwrWTkd8ZfWDxSj1S-2">
          <mxGeometry y="60" width="300" height="26" as="geometry" />
        </mxCell>
        <mxCell id="9sARwrWTkd8ZfWDxSj1S-6" value="AncybDiagnosticToolDataManager" style="swimlane;fontStyle=0;align=center;verticalAlign=top;childLayout=stackLayout;horizontal=1;startSize=26;horizontalStack=0;resizeParent=1;resizeParentMax=0;resizeLast=0;collapsible=1;marginBottom=0;" vertex="1" parent="WIyWlLk6GJQsqaUBKTNV-1">
          <mxGeometry x="2480" y="727" width="390" height="200" as="geometry" />
        </mxCell>
        <mxCell id="9sARwrWTkd8ZfWDxSj1S-7" value="+ AncybDiagnosticToolDataManager(String)" style="text;strokeColor=none;fillColor=none;align=left;verticalAlign=top;spacingLeft=4;spacingRight=4;overflow=hidden;rotatable=0;points=[[0,0.5],[1,0.5]];portConstraint=eastwest;" vertex="1" parent="9sARwrWTkd8ZfWDxSj1S-6">
          <mxGeometry y="26" width="390" height="26" as="geometry" />
        </mxCell>
        <mxCell id="9sARwrWTkd8ZfWDxSj1S-8" value="" style="line;strokeWidth=1;fillColor=none;align=left;verticalAlign=middle;spacingTop=-1;spacingLeft=3;spacingRight=3;rotatable=0;labelPosition=right;points=[];portConstraint=eastwest;" vertex="1" parent="9sARwrWTkd8ZfWDxSj1S-6">
          <mxGeometry y="52" width="390" height="8" as="geometry" />
        </mxCell>
        <mxCell id="9sARwrWTkd8ZfWDxSj1S-9" value="+ getUrl() : String&#xa;+ buildUrl(): void&#xa;+ downloadJSONData(): void&#xa;+ buildForecast(): Forecast&#xa;+ extractSgSourceFromJSONArray(JSONArray): float" style="text;strokeColor=none;fillColor=none;align=left;verticalAlign=top;spacingLeft=4;spacingRight=4;overflow=hidden;rotatable=0;points=[[0,0.5],[1,0.5]];portConstraint=eastwest;" vertex="1" parent="9sARwrWTkd8ZfWDxSj1S-6">
          <mxGeometry y="60" width="390" height="140" as="geometry" />
        </mxCell>
        <mxCell id="9sARwrWTkd8ZfWDxSj1S-10" value="Use" style="endArrow=open;endSize=12;dashed=1;html=1;rounded=0;exitX=0.5;exitY=0;exitDx=0;exitDy=0;entryX=0.505;entryY=1.021;entryDx=0;entryDy=0;entryPerimeter=0;edgeStyle=orthogonalEdgeStyle;" edge="1" parent="WIyWlLk6GJQsqaUBKTNV-1" source="9sARwrWTkd8ZfWDxSj1S-6" target="hj5ngC77WGNCJNdUPFqx-5">
          <mxGeometry x="0.055" width="160" relative="1" as="geometry">
            <mxPoint x="2550" y="610" as="sourcePoint" />
            <mxPoint x="2710" y="610" as="targetPoint" />
            <Array as="points">
              <mxPoint x="2675" y="710" />
              <mxPoint x="2957" y="710" />
            </Array>
            <mxPoint as="offset" />
          </mxGeometry>
        </mxCell>
        <mxCell id="9sARwrWTkd8ZfWDxSj1S-17" value="datasim" style="shape=folder;fontStyle=1;spacingTop=10;tabWidth=40;tabHeight=14;tabPosition=left;html=1;align=center;verticalAlign=top;" vertex="1" parent="WIyWlLk6GJQsqaUBKTNV-1">
          <mxGeometry x="2370" y="10" width="1230" height="370" as="geometry" />
        </mxCell>
        <mxCell id="9sARwrWTkd8ZfWDxSj1S-13" value="AncybFishDataSim" style="swimlane;fontStyle=1;align=center;verticalAlign=top;childLayout=stackLayout;horizontal=1;startSize=26;horizontalStack=0;resizeParent=1;resizeParentMax=0;resizeLast=0;collapsible=1;marginBottom=0;" vertex="1" parent="WIyWlLk6GJQsqaUBKTNV-1">
          <mxGeometry x="2425" y="60" width="320" height="130" as="geometry" />
        </mxCell>
        <mxCell id="9sARwrWTkd8ZfWDxSj1S-14" value="+ AncybFishDataSim()&#xa;+ ArrayList&lt;AncybFishDataObjectSim&gt;" style="text;strokeColor=none;fillColor=none;align=left;verticalAlign=top;spacingLeft=4;spacingRight=4;overflow=hidden;rotatable=0;points=[[0,0.5],[1,0.5]];portConstraint=eastwest;" vertex="1" parent="9sARwrWTkd8ZfWDxSj1S-13">
          <mxGeometry y="26" width="320" height="40" as="geometry" />
        </mxCell>
        <mxCell id="9sARwrWTkd8ZfWDxSj1S-15" value="" style="line;strokeWidth=1;fillColor=none;align=left;verticalAlign=middle;spacingTop=-1;spacingLeft=3;spacingRight=3;rotatable=0;labelPosition=right;points=[];portConstraint=eastwest;" vertex="1" parent="9sARwrWTkd8ZfWDxSj1S-13">
          <mxGeometry y="66" width="320" height="8" as="geometry" />
        </mxCell>
        <mxCell id="9sARwrWTkd8ZfWDxSj1S-16" value="+ getDataSim(String, String): AncybFishDataObjectSim&#xa;+ getDataSimList(String): ArrayList&lt;AncybFishDataObjectSim&gt;" style="text;strokeColor=none;fillColor=none;align=left;verticalAlign=top;spacingLeft=4;spacingRight=4;overflow=hidden;rotatable=0;points=[[0,0.5],[1,0.5]];portConstraint=eastwest;" vertex="1" parent="9sARwrWTkd8ZfWDxSj1S-13">
          <mxGeometry y="74" width="320" height="56" as="geometry" />
        </mxCell>
        <mxCell id="9sARwrWTkd8ZfWDxSj1S-21" value="AncybFishDataObjectSim" style="swimlane;fontStyle=1;align=center;verticalAlign=top;childLayout=stackLayout;horizontal=1;startSize=26;horizontalStack=0;resizeParent=1;resizeParentMax=0;resizeLast=0;collapsible=1;marginBottom=0;" vertex="1" parent="WIyWlLk6GJQsqaUBKTNV-1">
          <mxGeometry x="2870" y="70" width="620" height="260" as="geometry" />
        </mxCell>
        <mxCell id="9sARwrWTkd8ZfWDxSj1S-22" value="+ AncybFishDataObjectSim(String macAddr, String time, double lat, double lng, float temp)" style="text;strokeColor=none;fillColor=none;align=left;verticalAlign=top;spacingLeft=4;spacingRight=4;overflow=hidden;rotatable=0;points=[[0,0.5],[1,0.5]];portConstraint=eastwest;" vertex="1" parent="9sARwrWTkd8ZfWDxSj1S-21">
          <mxGeometry y="26" width="620" height="40" as="geometry" />
        </mxCell>
        <mxCell id="9sARwrWTkd8ZfWDxSj1S-23" value="" style="line;strokeWidth=1;fillColor=none;align=left;verticalAlign=middle;spacingTop=-1;spacingLeft=3;spacingRight=3;rotatable=0;labelPosition=right;points=[];portConstraint=eastwest;" vertex="1" parent="9sARwrWTkd8ZfWDxSj1S-21">
          <mxGeometry y="66" width="620" height="8" as="geometry" />
        </mxCell>
        <mxCell id="9sARwrWTkd8ZfWDxSj1S-24" value="+ getMacAddr(): String&#xa;+ setMacAddr(String): void&#xa;+ getTime(): String&#xa;+ setTime(String): void&#xa;+ getLat(): double&#xa;+ setLat(double): void&#xa;+ getLng(): double&#xa;+ setLng(double): void&#xa;+ getTemp(): float&#xa;+ setTemp(float): void&#xa;&#xa;" style="text;strokeColor=none;fillColor=none;align=left;verticalAlign=top;spacingLeft=4;spacingRight=4;overflow=hidden;rotatable=0;points=[[0,0.5],[1,0.5]];portConstraint=eastwest;" vertex="1" parent="9sARwrWTkd8ZfWDxSj1S-21">
          <mxGeometry y="74" width="620" height="186" as="geometry" />
        </mxCell>
        <mxCell id="9sARwrWTkd8ZfWDxSj1S-25" value="Use" style="endArrow=open;endSize=12;dashed=1;html=1;rounded=0;exitX=0.5;exitY=0;exitDx=0;exitDy=0;entryX=0.506;entryY=0.982;entryDx=0;entryDy=0;entryPerimeter=0;edgeStyle=orthogonalEdgeStyle;" edge="1" parent="WIyWlLk6GJQsqaUBKTNV-1" source="9sARwrWTkd8ZfWDxSj1S-21" target="9sARwrWTkd8ZfWDxSj1S-16">
          <mxGeometry width="160" relative="1" as="geometry">
            <mxPoint x="2450" y="360" as="sourcePoint" />
            <mxPoint x="2590" y="180" as="targetPoint" />
          </mxGeometry>
        </mxCell>
        <mxCell id="9sARwrWTkd8ZfWDxSj1S-26" value="Filter" style="swimlane;fontStyle=1;align=center;verticalAlign=top;childLayout=stackLayout;horizontal=1;startSize=26;horizontalStack=0;resizeParent=1;resizeParentMax=0;resizeLast=0;collapsible=1;marginBottom=0;" vertex="1" parent="WIyWlLk6GJQsqaUBKTNV-1">
          <mxGeometry x="1216.25" y="1090" width="277.5" height="120" as="geometry" />
        </mxCell>
        <mxCell id="9sARwrWTkd8ZfWDxSj1S-27" value="+ Filter(Forecast f)" style="text;strokeColor=none;fillColor=none;align=left;verticalAlign=top;spacingLeft=4;spacingRight=4;overflow=hidden;rotatable=0;points=[[0,0.5],[1,0.5]];portConstraint=eastwest;" vertex="1" parent="9sARwrWTkd8ZfWDxSj1S-26">
          <mxGeometry y="26" width="277.5" height="26" as="geometry" />
        </mxCell>
        <mxCell id="9sARwrWTkd8ZfWDxSj1S-28" value="" style="line;strokeWidth=1;fillColor=none;align=left;verticalAlign=middle;spacingTop=-1;spacingLeft=3;spacingRight=3;rotatable=0;labelPosition=right;points=[];portConstraint=eastwest;" vertex="1" parent="9sARwrWTkd8ZfWDxSj1S-26">
          <mxGeometry y="52" width="277.5" height="8" as="geometry" />
        </mxCell>
        <mxCell id="9sARwrWTkd8ZfWDxSj1S-29" value="+ getFilteredForecastObject(): ForecastObject&#xa;+ getForecast():Forecast" style="text;strokeColor=none;fillColor=none;align=left;verticalAlign=top;spacingLeft=4;spacingRight=4;overflow=hidden;rotatable=0;points=[[0,0.5],[1,0.5]];portConstraint=eastwest;" vertex="1" parent="9sARwrWTkd8ZfWDxSj1S-26">
          <mxGeometry y="60" width="277.5" height="60" as="geometry" />
        </mxCell>
        <mxCell id="9sARwrWTkd8ZfWDxSj1S-30" value="FilterByTime" style="swimlane;fontStyle=1;align=center;verticalAlign=top;childLayout=stackLayout;horizontal=1;startSize=26;horizontalStack=0;resizeParent=1;resizeParentMax=0;resizeLast=0;collapsible=1;marginBottom=0;" vertex="1" parent="WIyWlLk6GJQsqaUBKTNV-1">
          <mxGeometry x="1232.5" y="1270" width="245" height="86" as="geometry" />
        </mxCell>
        <mxCell id="9sARwrWTkd8ZfWDxSj1S-31" value="+ FilterByTime(Forecast f, String time)" style="text;strokeColor=none;fillColor=none;align=left;verticalAlign=top;spacingLeft=4;spacingRight=4;overflow=hidden;rotatable=0;points=[[0,0.5],[1,0.5]];portConstraint=eastwest;" vertex="1" parent="9sARwrWTkd8ZfWDxSj1S-30">
          <mxGeometry y="26" width="245" height="26" as="geometry" />
        </mxCell>
        <mxCell id="9sARwrWTkd8ZfWDxSj1S-32" value="" style="line;strokeWidth=1;fillColor=none;align=left;verticalAlign=middle;spacingTop=-1;spacingLeft=3;spacingRight=3;rotatable=0;labelPosition=right;points=[];portConstraint=eastwest;" vertex="1" parent="9sARwrWTkd8ZfWDxSj1S-30">
          <mxGeometry y="52" width="245" height="8" as="geometry" />
        </mxCell>
        <mxCell id="9sARwrWTkd8ZfWDxSj1S-33" value="getFilteredForecastObject(): ForecastObject" style="text;strokeColor=none;fillColor=none;align=left;verticalAlign=top;spacingLeft=4;spacingRight=4;overflow=hidden;rotatable=0;points=[[0,0.5],[1,0.5]];portConstraint=eastwest;" vertex="1" parent="9sARwrWTkd8ZfWDxSj1S-30">
          <mxGeometry y="60" width="245" height="26" as="geometry" />
        </mxCell>
        <mxCell id="9sARwrWTkd8ZfWDxSj1S-34" value="FilterByPastTime" style="swimlane;fontStyle=1;align=center;verticalAlign=top;childLayout=stackLayout;horizontal=1;startSize=26;horizontalStack=0;resizeParent=1;resizeParentMax=0;resizeLast=0;collapsible=1;marginBottom=0;" vertex="1" parent="WIyWlLk6GJQsqaUBKTNV-1">
          <mxGeometry x="1110" y="1410" width="245" height="86" as="geometry" />
        </mxCell>
        <mxCell id="9sARwrWTkd8ZfWDxSj1S-35" value="+ FilterByTime(Forecast f, String time)" style="text;strokeColor=none;fillColor=none;align=left;verticalAlign=top;spacingLeft=4;spacingRight=4;overflow=hidden;rotatable=0;points=[[0,0.5],[1,0.5]];portConstraint=eastwest;" vertex="1" parent="9sARwrWTkd8ZfWDxSj1S-34">
          <mxGeometry y="26" width="245" height="26" as="geometry" />
        </mxCell>
        <mxCell id="9sARwrWTkd8ZfWDxSj1S-36" value="" style="line;strokeWidth=1;fillColor=none;align=left;verticalAlign=middle;spacingTop=-1;spacingLeft=3;spacingRight=3;rotatable=0;labelPosition=right;points=[];portConstraint=eastwest;" vertex="1" parent="9sARwrWTkd8ZfWDxSj1S-34">
          <mxGeometry y="52" width="245" height="8" as="geometry" />
        </mxCell>
        <mxCell id="9sARwrWTkd8ZfWDxSj1S-37" value="getFilteredForecastObject(): ForecastObject" style="text;strokeColor=none;fillColor=none;align=left;verticalAlign=top;spacingLeft=4;spacingRight=4;overflow=hidden;rotatable=0;points=[[0,0.5],[1,0.5]];portConstraint=eastwest;" vertex="1" parent="9sARwrWTkd8ZfWDxSj1S-34">
          <mxGeometry y="60" width="245" height="26" as="geometry" />
        </mxCell>
        <mxCell id="9sARwrWTkd8ZfWDxSj1S-38" value="FilterByFutureTime" style="swimlane;fontStyle=1;align=center;verticalAlign=top;childLayout=stackLayout;horizontal=1;startSize=26;horizontalStack=0;resizeParent=1;resizeParentMax=0;resizeLast=0;collapsible=1;marginBottom=0;" vertex="1" parent="WIyWlLk6GJQsqaUBKTNV-1">
          <mxGeometry x="1370" y="1410" width="245" height="86" as="geometry" />
        </mxCell>
        <mxCell id="9sARwrWTkd8ZfWDxSj1S-39" value="+ FilterByTime(Forecast f, String time)" style="text;strokeColor=none;fillColor=none;align=left;verticalAlign=top;spacingLeft=4;spacingRight=4;overflow=hidden;rotatable=0;points=[[0,0.5],[1,0.5]];portConstraint=eastwest;" vertex="1" parent="9sARwrWTkd8ZfWDxSj1S-38">
          <mxGeometry y="26" width="245" height="26" as="geometry" />
        </mxCell>
        <mxCell id="9sARwrWTkd8ZfWDxSj1S-40" value="" style="line;strokeWidth=1;fillColor=none;align=left;verticalAlign=middle;spacingTop=-1;spacingLeft=3;spacingRight=3;rotatable=0;labelPosition=right;points=[];portConstraint=eastwest;" vertex="1" parent="9sARwrWTkd8ZfWDxSj1S-38">
          <mxGeometry y="52" width="245" height="8" as="geometry" />
        </mxCell>
        <mxCell id="9sARwrWTkd8ZfWDxSj1S-41" value="getFilteredForecastObject(): ForecastObject" style="text;strokeColor=none;fillColor=none;align=left;verticalAlign=top;spacingLeft=4;spacingRight=4;overflow=hidden;rotatable=0;points=[[0,0.5],[1,0.5]];portConstraint=eastwest;" vertex="1" parent="9sARwrWTkd8ZfWDxSj1S-38">
          <mxGeometry y="60" width="245" height="26" as="geometry" />
        </mxCell>
        <mxCell id="9sARwrWTkd8ZfWDxSj1S-43" value="Extends" style="endArrow=block;endSize=16;endFill=0;html=1;rounded=0;exitX=0.5;exitY=0;exitDx=0;exitDy=0;entryX=0.476;entryY=1.154;entryDx=0;entryDy=0;entryPerimeter=0;" edge="1" parent="WIyWlLk6GJQsqaUBKTNV-1" source="9sARwrWTkd8ZfWDxSj1S-34" target="9sARwrWTkd8ZfWDxSj1S-33">
          <mxGeometry width="160" relative="1" as="geometry">
            <mxPoint x="1290" y="1210" as="sourcePoint" />
            <mxPoint x="1450" y="1210" as="targetPoint" />
          </mxGeometry>
        </mxCell>
        <mxCell id="9sARwrWTkd8ZfWDxSj1S-44" value="Extends" style="endArrow=block;endSize=16;endFill=0;html=1;rounded=0;exitX=0.5;exitY=0;exitDx=0;exitDy=0;entryX=0.504;entryY=1.154;entryDx=0;entryDy=0;entryPerimeter=0;" edge="1" parent="WIyWlLk6GJQsqaUBKTNV-1" source="9sARwrWTkd8ZfWDxSj1S-38" target="9sARwrWTkd8ZfWDxSj1S-33">
          <mxGeometry width="160" relative="1" as="geometry">
            <mxPoint x="1242.5" y="1420" as="sourcePoint" />
            <mxPoint x="1359.12" y="1370.004" as="targetPoint" />
          </mxGeometry>
        </mxCell>
      </root>
    </mxGraphModel>
  </diagram>
</mxfile>
